<svg width="12" height="20" viewBox="0 0 12 20" fill="none" xmlns="http://www.w3.org/2000/svg">
<path d="M2.87506 19.1L11.3001 10.7C11.4001 10.6 11.4711 10.4917 11.5131 10.375C11.5551 10.2584 11.5757 10.1334 11.5751 10C11.5751 9.86669 11.5541 9.74169 11.5121 9.62502C11.4701 9.50836 11.3994 9.40002 11.3001 9.30002L2.87506 0.875024C2.64172 0.641691 2.35006 0.525024 2.00006 0.525024C1.65006 0.525024 1.35006 0.650024 1.10006 0.900024C0.850058 1.15002 0.725058 1.44169 0.725058 1.77502C0.725058 2.10836 0.850058 2.40002 1.10006 2.65002L8.45006 10L1.10006 17.35C0.866724 17.5834 0.750057 17.871 0.750057 18.213C0.750057 18.555 0.875057 18.8507 1.12506 19.1C1.37506 19.35 1.66672 19.475 2.00006 19.475C2.33339 19.475 2.62506 19.35 2.87506 19.1Z" fill="#AEAEAE"/>
</svg>
