<svg width="8" height="8" viewBox="0 0 8 8" fill="none" xmlns="http://www.w3.org/2000/svg">
<path fill-rule="evenodd" clip-rule="evenodd" d="M2.33333 1.08333H5.58125C6.04583 1.08333 6.21417 1.13167 6.38375 1.2225C6.55333 1.31333 6.68667 1.44667 6.7775 1.61625C6.86833 1.78583 6.91667 1.95417 6.91667 2.41875V5.66667C6.91667 5.77717 6.96057 5.88315 7.0387 5.96129C7.11685 6.03943 7.22283 6.08333 7.33333 6.08333C7.44384 6.08333 7.54982 6.03943 7.62796 5.96129C7.7061 5.88315 7.75 5.77717 7.75 5.66667V2.38667C7.75 1.64375 7.6725 1.37417 7.5275 1.1025C7.38541 0.834086 7.16591 0.614587 6.8975 0.4725C6.62583 0.3275 6.35625 0.25 5.61333 0.25H2.33333C2.22283 0.25 2.11685 0.293899 2.03871 0.372039C1.96057 0.450179 1.91667 0.55616 1.91667 0.666667C1.91667 0.777174 1.96057 0.883154 2.03871 0.961294C2.11685 1.03943 2.22283 1.08333 2.33333 1.08333ZM5.55042 2.05583C5.38083 1.965 5.2125 1.91667 4.74792 1.91667H1.58542C1.12083 1.91667 0.9525 1.965 0.782917 2.05583C0.61516 2.14464 0.477974 2.28183 0.389167 2.44958C0.298333 2.61917 0.25 2.7875 0.25 3.25208V6.41458C0.25 6.87875 0.298333 7.0475 0.389167 7.21708C0.48 7.38667 0.613333 7.52 0.782917 7.61083C0.9525 7.70167 1.12083 7.75 1.58542 7.75H4.74792C5.21208 7.75 5.38083 7.70167 5.55042 7.61083C5.72 7.52 5.85333 7.38667 5.94417 7.21708C6.035 7.0475 6.08333 6.87917 6.08333 6.41458V3.25208C6.08333 2.7875 6.035 2.61917 5.94417 2.44958C5.85536 2.28183 5.71817 2.14464 5.55042 2.05583Z" fill="#737373"/>
</svg>
