<svg width="17" height="20" viewBox="0 0 17 20" fill="none" xmlns="http://www.w3.org/2000/svg">
<path d="M1 11.5H3.111C3.04048 11.003 3.0034 10.5019 3 10C3.0034 9.49808 3.04048 8.99695 3.111 8.5H1C0.734784 8.5 0.48043 8.39464 0.292893 8.20711C0.105357 8.01957 0 7.76522 0 7.5C0 7.23478 0.105357 6.98043 0.292893 6.79289C0.48043 6.60536 0.734784 6.5 1 6.5H3.571C4.09225 4.68233 5.17379 3.0755 6.66158 1.9084C8.14936 0.741303 9.9675 0.073458 11.857 4.08943e-07C13.104 -0.000399235 14.3337 0.292123 15.447 0.854001C15.6844 0.972552 15.8649 1.18054 15.9489 1.43222C16.033 1.68389 16.0136 1.95863 15.895 2.196C15.7764 2.43337 15.5685 2.61392 15.3168 2.69794C15.0651 2.78195 14.7904 2.76255 14.553 2.644C13.7172 2.22115 12.7937 2.00056 11.857 2C10.5005 2.0563 9.1913 2.514 8.09521 3.3151C6.99911 4.11621 6.1655 5.22466 5.7 6.5H11C11.2652 6.5 11.5196 6.60536 11.7071 6.79289C11.8946 6.98043 12 7.23478 12 7.5C12 7.76522 11.8946 8.01957 11.7071 8.20711C11.5196 8.39464 11.2652 8.5 11 8.5H5.125C4.95832 9.49305 4.95832 10.5069 5.125 11.5H10C10.2652 11.5 10.5196 11.6054 10.7071 11.7929C10.8946 11.9804 11 12.2348 11 12.5C11 12.7652 10.8946 13.0196 10.7071 13.2071C10.5196 13.3946 10.2652 13.5 10 13.5H5.7C6.1655 14.7753 6.99911 15.8838 8.09521 16.6849C9.1913 17.486 10.5005 17.9437 11.857 18C12.7951 18.0001 13.72 17.7795 14.557 17.356C14.7944 17.2374 15.0691 17.218 15.3208 17.3021C15.5725 17.3861 15.7804 17.5666 15.899 17.804C16.0176 18.0414 16.037 18.3161 15.9529 18.5678C15.8689 18.8195 15.6884 19.0274 15.451 19.146C14.3377 19.7079 13.108 20.0004 11.861 20C9.9715 19.9265 8.15336 19.2587 6.66558 18.0916C5.17779 16.9245 4.09625 15.3177 3.575 13.5H1C0.734784 13.5 0.48043 13.3946 0.292893 13.2071C0.105357 13.0196 0 12.7652 0 12.5C0 12.2348 0.105357 11.9804 0.292893 11.7929C0.48043 11.6054 0.734784 11.5 1 11.5Z" fill="white"/>
</svg>
